<svg width="15" height="10" viewBox="0 0 15 10" fill="none" xmlns="http://www.w3.org/2000/svg">
<path fill-rule="evenodd" clip-rule="evenodd" d="M14.0624 1.39305C14.0624 1.74277 13.9248 2.07128 13.6884 2.29979L6.17142 9.58156C5.90739 9.82293 5.56217 9.96182 5.21539 9.96182C4.86525 9.96182 4.5229 9.82068 4.27938 9.58528L0.510875 5.94253C0.274484 5.71403 0.136917 5.38552 0.136917 5.0358C0.136917 4.70488 0.276742 4.38672 0.527126 4.12922C0.783928 3.89619 1.11183 3.76617 1.47056 3.75255C1.82044 3.75435 2.14545 3.88173 2.40307 4.11731L5.21539 6.83578L11.7962 0.47456C12.0538 0.238979 12.3789 0.111598 12.7287 0.109802C13.0899 0.123508 13.4167 0.254993 13.6722 0.501956C13.9189 0.740396 14.0624 1.05743 14.0624 1.39305Z" fill="#FCFCFC"/>
</svg>
