<svg width="25" height="25" viewBox="0 0 25 25" fill="none" xmlns="http://www.w3.org/2000/svg">
<path d="M8.8616 12.4218C9.00243 12.3693 9.15388 12.3421 9.30699 12.3416C9.46009 12.3411 9.61176 12.3674 9.75302 12.419C9.89428 12.4706 10.0223 12.5463 10.1294 12.6418C10.2365 12.7373 10.3207 12.8506 10.3768 12.9749C10.4329 13.0993 10.46 13.2322 10.4562 13.3659C10.4525 13.4995 10.4182 13.6311 10.3552 13.7529C10.2922 13.8748 10.2019 13.9844 10.0895 14.0752C9.97722 14.166 9.84517 14.2363 9.70122 14.2818C8.93553 14.5452 8.27837 15.0037 7.81524 15.5976C7.35211 16.1915 7.10446 16.8933 7.10449 17.6118V19.3518C7.10449 19.617 7.22517 19.8714 7.43998 20.0589C7.6548 20.2465 7.94614 20.3518 8.24994 20.3518H17.4135C17.7173 20.3518 18.0086 20.2465 18.2235 20.0589C18.4383 19.8714 18.5589 19.617 18.5589 19.3518V17.7048C18.5591 16.9633 18.3011 16.2392 17.8191 15.6286C17.3372 15.018 16.654 14.5497 15.8603 14.2858C15.7154 14.2419 15.5821 14.1731 15.4683 14.0834C15.3545 13.9937 15.2625 13.885 15.1977 13.7637C15.1329 13.6424 15.0966 13.5109 15.0911 13.3771C15.0856 13.2434 15.1109 13.11 15.1655 12.9849C15.2201 12.8598 15.3029 12.7456 15.409 12.649C15.5151 12.5524 15.6424 12.4753 15.7832 12.4224C15.9241 12.3695 16.0757 12.3419 16.229 12.3411C16.3823 12.3403 16.5343 12.3664 16.6758 12.4178C17.9033 12.826 18.9597 13.5501 19.7051 14.4943C20.4505 15.4385 20.8497 16.5581 20.8498 17.7048V19.3518C20.8498 20.1475 20.4878 20.9105 19.8434 21.4731C19.1989 22.0357 18.3249 22.3518 17.4135 22.3518H8.24994C7.33856 22.3518 6.46452 22.0357 5.82008 21.4731C5.17564 20.9105 4.8136 20.1475 4.8136 19.3518V17.6118C4.81376 16.492 5.19993 15.3981 5.92189 14.4724C6.64384 13.5468 7.66816 12.8323 8.8616 12.4218ZM12.8317 2.35181C14.0469 2.35181 15.2123 2.77323 16.0715 3.52338C16.9308 4.27352 17.4135 5.29094 17.4135 6.35181V8.35181C17.4135 9.41267 16.9308 10.4301 16.0715 11.1802C15.2123 11.9304 14.0469 12.3518 12.8317 12.3518C11.6166 12.3518 10.4512 11.9304 9.59191 11.1802C8.73266 10.4301 8.24994 9.41267 8.24994 8.35181V6.35181C8.24994 5.29094 8.73266 4.27352 9.59191 3.52338C10.4512 2.77323 11.6166 2.35181 12.8317 2.35181ZM12.8317 4.35181C12.2241 4.35181 11.6414 4.56252 11.2118 4.93759C10.7822 5.31267 10.5408 5.82137 10.5408 6.35181V8.35181C10.5408 8.88224 10.7822 9.39095 11.2118 9.76602C11.6414 10.1411 12.2241 10.3518 12.8317 10.3518C13.4393 10.3518 14.022 10.1411 14.4516 9.76602C14.8812 9.39095 15.1226 8.88224 15.1226 8.35181V6.35181C15.1226 5.82137 14.8812 5.31267 14.4516 4.93759C14.022 4.56252 13.4393 4.35181 12.8317 4.35181Z" fill="#181725"/>
</svg>
