<svg width="25" height="25" viewBox="0 0 25 25" fill="none" xmlns="http://www.w3.org/2000/svg">
<g clip-path="url(#clip0_1_852)">
<path d="M4.93092 11.8434L12.755 19.6675L20.5791 11.8434C21.2709 11.1517 21.6595 10.2135 21.6595 9.2352C21.6595 8.25693 21.2709 7.31871 20.5791 6.62697C20.2366 6.28445 19.83 6.01275 19.3825 5.82738C18.9349 5.64201 18.4553 5.5466 17.9709 5.5466C16.9926 5.5466 16.0544 5.93522 15.3626 6.62697L12.755 9.23459L10.1474 6.6282C9.45389 5.94573 8.5188 5.56495 7.54581 5.56879C6.57283 5.57264 5.64078 5.9608 4.95269 6.64873C4.26459 7.33666 3.87621 8.26862 3.87213 9.24161C3.86806 10.2146 4.24862 11.1498 4.93092 11.8434ZM11.8858 4.88732L12.755 5.75653L13.6242 4.88732C14.1941 4.3124 14.872 3.85571 15.6189 3.54347C16.3657 3.23122 17.1669 3.06957 17.9765 3.0678C18.786 3.06603 19.5879 3.22416 20.3361 3.53314C21.0844 3.84211 21.7642 4.29583 22.3366 4.86824C22.909 5.44066 23.3628 6.12051 23.6717 6.86874C23.9807 7.61698 24.1388 8.41888 24.1371 9.2284C24.1353 10.0379 23.9736 10.8391 23.6614 11.586C23.3491 12.3329 22.8925 13.0107 22.3175 13.5806L13.6255 22.2739C13.5113 22.3882 13.3757 22.4789 13.2264 22.5408C13.0772 22.6027 12.9172 22.6345 12.7556 22.6345C12.5941 22.6345 12.4341 22.6027 12.2848 22.5408C12.1356 22.4789 12 22.3882 11.8858 22.2739L3.19251 13.5819C2.60977 13.0138 2.14563 12.3357 1.82701 11.5868C1.5084 10.838 1.34164 10.0333 1.33643 9.21951C1.33122 8.40572 1.48764 7.59899 1.79664 6.84612C2.10563 6.09325 2.56105 5.40923 3.13646 4.83374C3.71187 4.25825 4.39582 3.80274 5.14865 3.49364C5.90147 3.18453 6.70818 3.02799 7.52198 3.03309C8.33577 3.03819 9.14045 3.20483 9.88935 3.52334C10.6382 3.84185 11.3164 4.30589 11.8846 4.88855L11.8858 4.88732Z" fill="#181725"/>
</g>
<defs>
<clipPath id="clip0_1_852">
<rect width="24" height="24" fill="white" transform="translate(0.236694 0.83374)"/>
</clipPath>
</defs>
</svg>
